<svg id="Layer_1" viewBox="0 0 512 512" xmlns="http://www.w3.org/2000/svg" data-name="Layer 1"><path d="m455.667 53.932h-48.039v-21.452c0-10.923-11.5-19.48-26.17-19.48-14.691 0-26.2 8.557-26.2 19.48v21.452h-73.058v-21.452c0-10.923-11.51-19.48-26.2-19.48s-26.2 8.557-26.2 19.48v21.452h-73.032v-21.452c0-10.923-11.507-19.48-26.2-19.48s-26.2 8.557-26.2 19.48v21.452h-48.007a31.817 31.817 0 0 0 -31.782 31.781v381.505a31.819 31.819 0 0 0 31.782 31.782h399.306a31.8 31.8 0 0 0 31.754-31.782v-381.505a31.8 31.8 0 0 0 -31.754-31.781zm-84.407-21.332c.49-1.05 4.17-3.6 10.2-3.6 6.012 0 9.682 2.554 10.17 3.6v21.332h-20.37zm-125.46.009c.5-1.053 4.184-3.609 10.2-3.609s9.7 2.556 10.2 3.609v21.323h-20.4zm-125.43 0c.5-1.053 4.183-3.609 10.2-3.609s9.7 2.556 10.2 3.609v21.323h-20.4z" fill="#eae8e8"/><path d="m238.12 205.162v35.914a8 8 0 0 1 -8 8h-40.7a8 8 0 0 1 -8-8v-35.914a8 8 0 0 1 8-8h40.7a8 8 0 0 1 8 8zm84.464-8h-40.7a8 8 0 0 0 -8 8v35.914a8 8 0 0 0 8 8h40.7a8 8 0 0 0 8-8v-35.914a8 8 0 0 0 -8-8zm-184.9 87.871h-40.732a8 8 0 0 0 -8 8v35.914a8 8 0 0 0 8 8h40.733a8 8 0 0 0 8-8v-35.914a8 8 0 0 0 -8-8zm92.435 0h-40.7a8 8 0 0 0 -8 8v35.914a8 8 0 0 0 8 8h40.7a8 8 0 0 0 8-8v-35.914a8 8 0 0 0 -7.999-8zm92.464 0h-40.7a8 8 0 0 0 -8 8v35.914a8 8 0 0 0 8 8h40.7a8 8 0 0 0 8-8v-35.914a8 8 0 0 0 -7.999-8zm-184.9 87.9h-40.731a8 8 0 0 0 -8 8v35.885a8 8 0 0 0 8 8h40.733a8 8 0 0 0 8-8v-35.884a8 8 0 0 0 -8-8zm92.435 0h-40.7a8 8 0 0 0 -8 8v35.885a8 8 0 0 0 8 8h40.7a8 8 0 0 0 8-8v-35.884a8 8 0 0 0 -7.998-8zm-92.433-175.771h-40.733a8 8 0 0 0 -8 8v35.914a8 8 0 0 0 8 8h40.733a8 8 0 0 0 8-8v-35.914a8 8 0 0 0 -8-8zm277.363 87.871h-40.7a8 8 0 0 0 -8 8v35.914a8 8 0 0 0 8 8h40.7a8 8 0 0 0 8-8v-35.914a8 8 0 0 0 -8-8zm-92.464 87.9h-40.7a8 8 0 0 0 -8 8v35.885a8 8 0 0 0 8 8h40.7a8 8 0 0 0 8-8v-35.884a8 8 0 0 0 -8-8z" fill="#484868"/><g fill="#3d3d54"><path d="m137.685 197.162h-10a8 8 0 0 1 8 8v35.914a8 8 0 0 1 -8 8h10a8 8 0 0 0 8-8v-35.914a8 8 0 0 0 -8-8z"/><path d="m230.12 372.934h-10a8 8 0 0 1 8 8v35.885a8 8 0 0 1 -8 8h10a8 8 0 0 0 8-8v-35.885a8 8 0 0 0 -8-8z"/><path d="m230.12 285.033h-10a8 8 0 0 1 8 8v35.914a8 8 0 0 1 -8 8h10a8 8 0 0 0 8-8v-35.914a8 8 0 0 0 -8-8z"/><path d="m137.685 372.934h-10a8 8 0 0 1 8 8v35.885a8 8 0 0 1 -8 8h10a8 8 0 0 0 8-8v-35.885a8 8 0 0 0 -8-8z"/><path d="m137.685 285.033h-10a8 8 0 0 1 8 8v35.914a8 8 0 0 1 -8 8h10a8 8 0 0 0 8-8v-35.914a8 8 0 0 0 -8-8z"/><path d="m322.584 372.934h-10a8 8 0 0 1 8 8v35.885a8 8 0 0 1 -8 8h10a8 8 0 0 0 8-8v-35.885a8 8 0 0 0 -8-8z"/><path d="m322.584 197.162h-10a8 8 0 0 1 8 8v35.914a8 8 0 0 1 -8 8h10a8 8 0 0 0 8-8v-35.914a8 8 0 0 0 -8-8z"/><path d="m230.12 197.162h-10a8 8 0 0 1 8 8v35.914a8 8 0 0 1 -8 8h10a8 8 0 0 0 8-8v-35.914a8 8 0 0 0 -8-8z"/><path d="m415.048 285.033h-10a8 8 0 0 1 8 8v35.914a8 8 0 0 1 -8 8h10a8 8 0 0 0 8-8v-35.914a8 8 0 0 0 -8-8z"/><path d="m322.584 285.033h-10a8 8 0 0 1 8 8v35.914a8 8 0 0 1 -8 8h10a8 8 0 0 0 8-8v-35.914a8 8 0 0 0 -8-8z"/></g><path d="m389.649 246.78a8 8 0 0 1 -5.632-2.318l-16.44-16.3a8 8 0 0 1 11.265-11.362l10.3 10.208 20.939-24.721a8 8 0 0 1 12.209 10.342l-26.532 31.322a8 8 0 0 1 -5.758 2.821c-.119.005-.235.008-.351.008z" fill="#d22e2e"/><path d="m417.446 473.242a8 8 0 0 1 -5.658 2.345h-355.427a31.819 31.819 0 0 1 -31.782-31.782v23.413a31.819 31.819 0 0 0 31.782 31.782h399.306a31.8 31.8 0 0 0 31.754-31.782v-67.293a8 8 0 0 1 -2.342 5.655z" fill="#d1c9c9"/><path d="m487.421 399.925v-1.049h-60.48a16 16 0 0 0 -16 16v60.711h.847a8 8 0 0 0 5.658-2.345l67.633-67.662a8 8 0 0 0 2.342-5.655z" fill="#bcb3b3"/><path d="m455.667 53.932h-84.407v30.282c.47 1.05 4.138 3.619 10.2 3.619a8 8 0 0 1 0 16c-14.691 0-26.2-8.569-26.2-19.509v-30.392h-109.46v30.276c.478 1.054 4.151 3.625 10.2 3.625a8 8 0 0 1 0 16c-14.691 0-26.2-8.569-26.2-19.509v-30.392h-109.428v30.276c.478 1.054 4.151 3.625 10.2 3.625a8 8 0 0 1 0 16c-14.69 0-26.2-8.569-26.2-19.509v-30.392h-48.011a31.817 31.817 0 0 0 -31.782 31.781v68.207h462.842v-68.207a31.8 31.8 0 0 0 -31.754-31.781z" fill="#d22e2e"/><path d="m24.579 153.92h462.842v12.492h-462.842z" fill="#d1c9c9"/><path d="m264 95.833a8 8 0 0 1 -8 8c-14.691 0-26.2-8.569-26.2-19.509v-51.844c0-10.923 11.509-19.48 26.2-19.48s26.2 8.557 26.2 19.48v21.452h-16v-21.323c-.5-1.053-4.185-3.609-10.2-3.609s-9.7 2.556-10.2 3.609v51.6c.478 1.054 4.151 3.625 10.2 3.625a8 8 0 0 1 8 7.999zm-133.43-8c-6.047 0-9.72-2.571-10.2-3.625v-51.6c.5-1.053 4.183-3.609 10.2-3.609s9.7 2.556 10.2 3.609v21.324h16v-21.452c0-10.923-11.507-19.48-26.2-19.48s-26.2 8.557-26.2 19.48v51.844c0 10.94 11.508 19.509 26.2 19.509a8 8 0 0 0 0-16zm250.888 0c-6.06 0-9.728-2.569-10.2-3.619v-51.614c.49-1.05 4.17-3.6 10.2-3.6 6.012 0 9.682 2.554 10.17 3.6v21.332h16v-21.452c0-10.923-11.5-19.48-26.17-19.48-14.691 0-26.2 8.557-26.2 19.48v51.844c0 10.94 11.507 19.509 26.2 19.509a8 8 0 0 0 0-16z" fill="#484868"/><path d="m130.62 80.834a14.926 14.926 0 0 0 -9.949 3.8c1.068 1.194 4.553 3.2 9.9 3.2a8 8 0 0 1 0 16 33.375 33.375 0 0 1 -14.062-2.966 14.992 14.992 0 1 0 14.111-20.034z" fill="#ad1e1e"/><path d="m256 80.834a14.925 14.925 0 0 0 -9.921 3.771c1.039 1.191 4.535 3.228 9.921 3.228a8 8 0 0 1 0 16 33.362 33.362 0 0 1 -14.123-2.994 14.992 14.992 0 1 0 14.123-20z" fill="#ad1e1e"/><path d="m381.444 80.834a14.921 14.921 0 0 0 -9.916 3.767c1.023 1.186 4.519 3.232 9.93 3.232a8 8 0 0 1 0 16 33.357 33.357 0 0 1 -14.14-3 14.992 14.992 0 1 0 14.126-20z" fill="#ad1e1e"/></svg>