<svg xmlns="http://www.w3.org/2000/svg" xmlns:xlink="http://www.w3.org/1999/xlink" width="50" zoomAndPan="magnify" viewBox="0 0 37.5 37.499999" height="50" preserveAspectRatio="xMidYMid meet" version="1.0"><defs><clipPath id="aee36d763c"><path d="M 0 0 L 37.007812 0 L 37.007812 37.007812 L 0 37.007812 Z M 0 0 " clip-rule="nonzero"/></clipPath><clipPath id="0e4bd6e707"><path d="M 0 0 L 37.007812 0 L 37.007812 37.007812 L 0 37.007812 Z M 0 0 " clip-rule="nonzero"/></clipPath></defs><g clip-path="url(#aee36d763c)"><path fill="#ffffff" d="M 0 0 L 37.007812 0 L 37.007812 37.007812 L 0 37.007812 Z M 0 0 " fill-opacity="1" fill-rule="nonzero"/><path fill="#ffffff" d="M 0 0 L 37.007812 0 L 37.007812 37.007812 L 0 37.007812 Z M 0 0 " fill-opacity="1" fill-rule="nonzero"/></g><path fill="#ff7900" d="M 27.675781 27.605469 C 27.699219 27.535156 27.714844 27.457031 27.726562 27.378906 L 28.078125 24.066406 C 28.132812 23.566406 27.847656 23.089844 27.382812 22.902344 L 23.726562 21.410156 C 23.207031 21.199219 22.609375 21.402344 22.324219 21.886719 L 20.984375 24.171875 C 17.453125 22.410156 14.59375 19.546875 12.828125 16.019531 L 15.117188 14.675781 C 15.601562 14.394531 15.804688 13.796875 15.589844 13.277344 L 14.101562 9.621094 C 13.910156 9.15625 13.4375 8.871094 12.9375 8.925781 L 9.621094 9.277344 C 9.542969 9.285156 9.46875 9.300781 9.394531 9.324219 C 9.375 9.332031 9.351562 9.339844 9.332031 9.351562 C 9.046875 9.484375 8.886719 9.789062 8.921875 10.097656 C 9.007812 10.84375 9.136719 11.582031 9.300781 12.3125 C 9.304688 12.3125 9.300781 12.3125 9.304688 12.3125 C 10.15625 16.046875 12.046875 19.492188 14.777344 22.222656 C 17.511719 24.957031 20.957031 26.847656 24.691406 27.703125 C 25.421875 27.867188 26.15625 27.992188 26.90625 28.078125 C 27.214844 28.113281 27.519531 27.953125 27.652344 27.671875 C 27.660156 27.648438 27.671875 27.625 27.675781 27.605469 " fill-opacity="1" fill-rule="nonzero"/><g clip-path="url(#0e4bd6e707)"><path fill="#ff7900" d="M 18.5 1.582031 C 9.171875 1.582031 1.582031 9.171875 1.582031 18.5 C 1.582031 27.832031 9.171875 35.421875 18.5 35.421875 C 27.832031 35.421875 35.421875 27.832031 35.421875 18.5 C 35.421875 9.171875 27.832031 1.582031 18.5 1.582031 Z M 18.5 37.003906 C 16.003906 37.003906 13.582031 36.511719 11.300781 35.546875 C 9.097656 34.617188 7.117188 33.28125 5.417969 31.582031 C 3.71875 29.886719 2.386719 27.90625 1.453125 25.703125 C 0.488281 23.421875 0 21 0 18.5 C 0 16.003906 0.488281 13.582031 1.453125 11.300781 C 2.386719 9.097656 3.71875 7.117188 5.417969 5.417969 C 7.117188 3.71875 9.097656 2.386719 11.300781 1.453125 C 13.582031 0.488281 16.003906 0 18.5 0 C 21 0 23.421875 0.488281 25.703125 1.453125 C 27.90625 2.386719 29.886719 3.71875 31.582031 5.417969 C 33.28125 7.117188 34.617188 9.097656 35.546875 11.300781 C 36.511719 13.582031 37.003906 16.003906 37.003906 18.5 C 37.003906 21 36.511719 23.421875 35.546875 25.703125 C 34.617188 27.90625 33.28125 29.886719 31.582031 31.582031 C 29.886719 33.28125 27.90625 34.617188 25.703125 35.546875 C 23.421875 36.511719 21 37.003906 18.5 37.003906 " fill-opacity="1" fill-rule="nonzero"/></g></svg>