<svg xmlns="http://www.w3.org/2000/svg" xmlns:xlink="http://www.w3.org/1999/xlink" width="50" zoomAndPan="magnify" viewBox="0 0 37.5 37.499999" height="50" preserveAspectRatio="xMidYMid meet" version="1.0"><defs><clipPath id="c0a324b745"><path d="M 0 0 L 37.007812 0 L 37.007812 37.007812 L 0 37.007812 Z M 0 0 " clip-rule="nonzero"/></clipPath><clipPath id="7c8c86c4f6"><path d="M 0.480469 0.367188 L 36.746094 0.367188 L 36.746094 36.632812 L 0.480469 36.632812 Z M 0.480469 0.367188 " clip-rule="nonzero"/></clipPath></defs><g clip-path="url(#c0a324b745)"><path fill="#ffffff" d="M 0 0 L 37.007812 0 L 37.007812 37.007812 L 0 37.007812 Z M 0 0 " fill-opacity="1" fill-rule="nonzero"/><path fill="#ffffff" d="M 0 0 L 37.007812 0 L 37.007812 37.007812 L 0 37.007812 Z M 0 0 " fill-opacity="1" fill-rule="nonzero"/></g><g clip-path="url(#7c8c86c4f6)"><path fill="#ff7900" d="M 18.496094 3.046875 C 22.667969 3.046875 26.683594 3.195312 28.984375 3.433594 C 31.335938 3.671875 33.199219 5.53125 33.449219 7.886719 L 33.453125 7.945312 C 33.503906 8.386719 33.546875 8.769531 33.589844 9.09375 C 33.742188 10.359375 33.839844 11.1875 33.839844 14.621094 C 33.839844 18.261719 33.730469 19.253906 33.558594 20.75 C 33.523438 21.046875 33.488281 21.351562 33.453125 21.695312 L 33.449219 21.75 C 33.199219 24.101562 31.34375 25.960938 28.992188 26.199219 C 27.746094 26.324219 25.988281 26.429688 23.914062 26.5 C 23.027344 26.527344 22.210938 27 21.738281 27.753906 L 18.585938 32.757812 L 15.441406 27.761719 C 14.96875 27.007812 14.144531 26.535156 13.257812 26.515625 C 11.105469 26.445312 9.289062 26.339844 8.003906 26.207031 C 5.652344 25.960938 3.789062 24.109375 3.542969 21.75 L 3.535156 21.695312 C 3.5 21.351562 3.464844 21.046875 3.429688 20.75 C 3.257812 19.253906 3.148438 18.261719 3.148438 14.621094 C 3.148438 11.1875 3.246094 10.351562 3.402344 9.085938 C 3.441406 8.753906 3.484375 8.382812 3.535156 7.929688 L 3.542969 7.882812 C 3.789062 5.53125 5.644531 3.671875 8.003906 3.425781 C 10.304688 3.195312 14.320312 3.046875 18.496094 3.046875 M 18.496094 0.375 C 14.527344 0.375 10.289062 0.507812 7.722656 0.773438 C 4.109375 1.148438 1.261719 4.003906 0.882812 7.605469 L 0.875 7.664062 C 0.65625 9.796875 0.480469 10.132812 0.480469 14.628906 C 0.480469 19.125 0.65625 19.84375 0.882812 21.976562 L 0.886719 22.03125 C 1.269531 25.640625 4.117188 28.492188 7.726562 28.863281 C 9.140625 29.011719 11.070312 29.117188 13.175781 29.1875 L 17.261719 35.675781 C 17.71875 36.410156 18.691406 36.625 19.421875 36.167969 C 19.621094 36.042969 19.789062 35.878906 19.914062 35.675781 L 24.003906 29.183594 C 26.042969 29.113281 27.894531 29.007812 29.273438 28.863281 C 32.882812 28.492188 35.742188 25.640625 36.113281 22.03125 L 36.121094 21.976562 C 36.347656 19.84375 36.515625 19.121094 36.515625 14.628906 C 36.515625 10.140625 36.339844 9.796875 36.121094 7.671875 L 36.113281 7.613281 C 35.742188 4.003906 32.882812 1.15625 29.273438 0.78125 C 26.699219 0.507812 22.464844 0.375 18.496094 0.375 Z M 18.496094 0.375 " fill-opacity="1" fill-rule="nonzero"/></g><path fill="#ff7900" d="M 18.070312 25.085938 C 16.832031 25.085938 15.828125 24.082031 15.835938 22.839844 C 15.835938 21.601562 16.839844 20.597656 18.078125 20.605469 C 19.316406 20.605469 20.316406 21.609375 20.316406 22.847656 C 20.316406 24.085938 19.308594 25.085938 18.070312 25.085938 Z M 21.082031 14.742188 C 19.597656 15.902344 19.570312 16.710938 19.570312 18.121094 C 19.570312 18.632812 19.304688 19.230469 17.972656 19.230469 C 16.867188 19.230469 16.488281 18.824219 16.488281 17.421875 C 16.488281 15.101562 17.515625 13.988281 18.296875 13.3125 C 19.191406 12.554688 20.703125 11.714844 20.703125 10.261719 C 20.703125 9.015625 19.621094 8.421875 18.269531 8.421875 C 15.511719 8.421875 16.109375 10.507812 14.644531 10.507812 C 13.914062 10.507812 13.027344 10.019531 13.027344 8.964844 C 13.027344 7.507812 14.703125 5.339844 18.347656 5.339844 C 21.808594 5.339844 24.101562 7.261719 24.101562 9.800781 C 24.101562 12.34375 21.816406 14.171875 21.082031 14.742188 Z M 21.082031 14.742188 " fill-opacity="1" fill-rule="nonzero"/></svg>