<svg xmlns="http://www.w3.org/2000/svg" xmlns:xlink="http://www.w3.org/1999/xlink" width="50" zoomAndPan="magnify" viewBox="0 0 37.5 37.499999" height="50" preserveAspectRatio="xMidYMid meet" version="1.0"><defs><clipPath id="2ed16f69e8"><path d="M 0 0 L 37.007812 0 L 37.007812 37.007812 L 0 37.007812 Z M 0 0 " clip-rule="nonzero"/></clipPath></defs><g clip-path="url(#2ed16f69e8)"><path fill="#ffffff" d="M 18.5 2.75 C 22.785156 2.75 26.910156 2.902344 29.273438 3.148438 C 31.6875 3.394531 33.601562 5.300781 33.855469 7.722656 L 33.863281 7.777344 C 33.914062 8.234375 33.957031 8.625 34 8.957031 C 34.160156 10.257812 34.261719 11.109375 34.261719 14.636719 C 34.261719 18.375 34.144531 19.390625 33.972656 20.929688 C 33.933594 21.234375 33.898438 21.546875 33.863281 21.898438 L 33.855469 21.957031 C 33.601562 24.371094 31.695312 26.277344 29.28125 26.523438 C 28.003906 26.65625 26.195312 26.761719 24.0625 26.835938 C 23.152344 26.863281 22.316406 27.347656 21.832031 28.121094 L 18.59375 33.257812 L 15.363281 28.128906 C 14.878906 27.355469 14.035156 26.871094 13.125 26.851562 C 10.910156 26.777344 9.046875 26.667969 7.726562 26.53125 C 5.3125 26.277344 3.394531 24.378906 3.144531 21.957031 L 3.136719 21.898438 C 3.101562 21.546875 3.0625 21.234375 3.027344 20.929688 C 2.855469 19.390625 2.738281 18.375 2.738281 14.636719 C 2.738281 11.109375 2.839844 10.25 3 8.949219 C 3.042969 8.609375 3.085938 8.226562 3.136719 7.765625 L 3.144531 7.714844 C 3.394531 5.300781 5.304688 3.394531 7.726562 3.140625 C 10.089844 2.902344 14.214844 2.75 18.5 2.75 M 18.5 0.00390625 C 14.425781 0.00390625 10.074219 0.140625 7.4375 0.414062 C 3.730469 0.796875 0.800781 3.734375 0.410156 7.433594 L 0.40625 7.488281 C 0.179688 9.679688 0 10.027344 0 14.644531 C 0 19.261719 0.179688 20 0.410156 22.1875 L 0.417969 22.246094 C 0.808594 25.953125 3.734375 28.878906 7.441406 29.261719 C 8.894531 29.414062 10.875 29.523438 13.035156 29.597656 L 17.234375 36.257812 C 17.703125 37.011719 18.703125 37.234375 19.453125 36.765625 C 19.65625 36.632812 19.828125 36.46875 19.960938 36.257812 L 24.15625 29.589844 C 26.253906 29.515625 28.152344 29.40625 29.570312 29.261719 C 33.277344 28.878906 36.210938 25.953125 36.59375 22.246094 L 36.601562 22.1875 C 36.832031 20 37.007812 19.253906 37.007812 14.644531 C 37.007812 10.035156 36.824219 9.679688 36.601562 7.496094 L 36.59375 7.441406 C 36.210938 3.734375 33.277344 0.804688 29.570312 0.421875 C 26.925781 0.140625 22.574219 0.00390625 18.5 0.00390625 Z M 18.5 0.00390625 " fill-opacity="1" fill-rule="nonzero"/></g><path fill="#ffffff" d="M 18.066406 25.382812 C 16.792969 25.382812 15.761719 24.347656 15.769531 23.078125 C 15.769531 21.804688 16.800781 20.773438 18.074219 20.78125 C 19.34375 20.78125 20.371094 21.8125 20.371094 23.085938 C 20.371094 24.355469 19.339844 25.382812 18.066406 25.382812 Z M 21.160156 14.761719 C 19.632812 15.953125 19.605469 16.785156 19.605469 18.230469 C 19.605469 18.757812 19.332031 19.371094 17.964844 19.371094 C 16.832031 19.371094 16.441406 18.953125 16.441406 17.511719 C 16.441406 15.128906 17.496094 13.988281 18.296875 13.292969 C 19.214844 12.511719 20.769531 11.652344 20.769531 10.15625 C 20.769531 8.878906 19.65625 8.269531 18.269531 8.269531 C 15.4375 8.269531 16.050781 10.410156 14.546875 10.410156 C 13.796875 10.410156 12.882812 9.910156 12.882812 8.828125 C 12.882812 7.332031 14.605469 5.105469 18.347656 5.105469 C 21.902344 5.105469 24.257812 7.078125 24.257812 9.6875 C 24.257812 12.296875 21.910156 14.175781 21.160156 14.761719 Z M 21.160156 14.761719 " fill-opacity="1" fill-rule="nonzero"/></svg>